# xmcd
#
# Track frame offsets:
#       183
#       13983
#       30283
#       43358
#       58158
#       68345
#       77833
#       93858
#       107058
#       117258
#       133495
#       144183
#       157383
#       168120
#       179070
#       191008
#
# Disc length: 2745 seconds
#
# Revision: 2
# Processed by: cddbd v1.4PL0 Copyright (c) Steve Scherf et al.
# Submitted via: WhereIsIt 3.55
#
DISCID=e20ab710
DTITLE=Dizionario della canzone italiana - 15 Il beat 2
DYEAR=1900
DGENRE=Blues
TTITLE0=Patty Pravo - Ragazzo triste
TTITLE1=I Camaleonti - L'ora dell'amore
TTITLE2=Mauro lusini - C'era un ragazzo che come me
TTITLE3=Fausto leali - Deborah
TTITLE4=Motowns - Prendi la chitarra e vai
TTITLE5=I Giganti - Fuori dal mondo
TTITLE6=I Camaleonti - Applausi
TTITLE7=Le pecore nere - Ricordo un ragazzo
TTITLE8=Lucio Dalla - Quando ero soldato
TTITLE9=I Giganti - La bomba atomica
TTITLE10=Patty Pravo - Sto con te
TTITLE11=The four kents - Sei Lontana
TTITLE12=I Giganti - Una ragazza in due
TTITLE13=Pippo Franco - Vedendo la foto di Bob Dylan
TTITLE14=Evy - L'abito non fa il beatnik
TTITLE15=Gene Guglielmi - Non eri un angelo
EXTD=
EXTT0=
EXTT1=
EXTT2=
EXTT3=
EXTT4=
EXTT5=
EXTT6=
EXTT7=
EXTT8=
EXTT9=
EXTT10=
EXTT11=
EXTT12=
EXTT13=
EXTT14=
EXTT15=
PLAYORDER=
